<?xml version="1.0" standalone="no"?>
<!DOCTYPE svg PUBLIC "-//W3C//DTD SVG 20010904//EN"
 "http://www.w3.org/TR/2001/REC-SVG-20010904/DTD/svg10.dtd">
<svg version="1.0" xmlns="http://www.w3.org/2000/svg"
 width="256.000000pt" height="256.000000pt" viewBox="0 0 256.000000 256.000000"
 preserveAspectRatio="xMidYMid meet">
<metadata>
Created by potrace 1.16, written by Peter Selinger 2001-2019
</metadata>
<g transform="translate(0.000000,256.000000) scale(0.100000,-0.100000)"
fill="#000000" stroke="none">
<path d="M1975 2421 l-36 -108 -77 18 c-42 11 -80 19 -84 19 -19 0 -4 -33 52
-112 l59 -86 -28 -85 c-37 -109 -45 -147 -32 -147 5 0 36 22 68 48 32 26 63
51 70 55 7 5 34 -24 74 -80 l61 -88 -5 85 c-4 47 -9 105 -12 130 l-6 45 75 58
c42 32 76 62 76 67 0 10 -15 15 -98 31 -76 14 -76 15 -93 157 -6 56 -15 102
-19 102 -5 0 -25 -49 -45 -109z"/>
<path d="M1983 1946 c6 -39 6 -99 0 -162 l-10 -99 -2 133 c-1 145 -15 170 -23
45 -7 -97 -53 -240 -111 -343 -50 -88 -148 -191 -232 -242 -71 -43 -193 -86
-255 -90 -44 -3 -44 -3 -51 35 -11 67 -64 119 -157 153 -63 23 -72 32 -72 64
0 33 28 60 62 60 32 0 44 -15 53 -64 l8 -38 66 7 c87 9 95 17 88 82 -12 116
-63 164 -175 166 -156 2 -265 -112 -266 -279 -1 -102 26 -140 138 -194 90 -42
102 -58 91 -110 -7 -32 -47 -70 -74 -70 -36 0 -60 29 -63 78 l-3 47 -75 -3
c-42 -2 -78 -9 -82 -15 -13 -20 -9 -101 7 -155 23 -76 66 -106 161 -110 83 -5
131 8 176 46 23 20 30 22 25 10 -8 -22 3 -23 108 -3 104 20 185 47 263 89 35
19 58 28 52 21 -7 -8 -20 -17 -31 -20 -16 -5 -19 -16 -19 -71 l0 -64 86 0 87
0 -7 112 c-4 62 -9 114 -11 117 -2 2 -23 -11 -47 -29 -34 -26 -30 -21 18 26
33 32 73 75 88 94 24 32 26 33 22 10 -19 -90 -56 -300 -56 -314 0 -15 10 -16
82 -14 l83 3 7 40 c5 22 33 184 64 360 30 176 66 379 80 452 l25 132 -56 81
c-31 44 -60 82 -64 84 -4 3 -3 -23 2 -58z"/>
<path d="M210 1632 c0 -4 -29 -176 -65 -382 -36 -206 -65 -381 -65 -388 0 -10
20 -12 82 -10 l83 3 62 355 c34 195 65 372 68 393 l7 37 -86 0 c-47 0 -86 -3
-86 -8z"/>
<path d="M405 1628 c-2 -7 -18 -96 -34 -198 -17 -102 -46 -271 -65 -377 -18
-106 -31 -195 -28 -198 5 -5 152 -8 152 -2 0 8 61 357 66 377 5 18 18 -18 50
-140 25 -91 49 -182 55 -202 l10 -38 78 0 77 0 12 63 c30 152 122 691 122 708
0 18 -6 20 -77 17 l-77 -3 -35 -202 -35 -202 -51 187 c-28 103 -54 195 -58
205 -5 14 -19 17 -82 17 -52 0 -77 -4 -80 -12z"/>
<path d="M1509 1619 c-22 -43 -119 -282 -119 -295 0 -16 20 -13 103 13 38 12
52 22 63 47 11 26 13 28 14 9 0 -29 4 -29 60 7 81 52 83 57 75 155 l-7 85 -89
0 c-80 0 -89 -2 -100 -21z"/>
<path d="M257 743 c-4 -3 -7 -37 -7 -75 0 -54 3 -68 15 -68 10 0 15 10 15 28
l1 27 15 -27 c15 -28 38 -36 49 -18 4 6 12 4 21 -5 19 -18 35 -19 58 -2 25 18
18 69 -11 82 -13 5 -23 16 -23 24 0 12 3 12 12 3 7 -7 25 -12 40 -12 27 0 28
-2 28 -50 0 -43 3 -50 20 -50 17 0 20 7 20 50 0 29 5 50 11 50 6 0 9 10 7 23
-2 18 -10 22 -45 24 -33 2 -43 -1 -43 -13 0 -14 -2 -14 -16 0 -20 20 -38 20
-54 1 -11 -14 -14 -13 -25 1 -16 23 -35 9 -35 -24 -1 -27 -1 -27 -15 6 -14 31
-25 39 -38 25z"/>
<path d="M1029 728 c0 -12 -2 -43 -5 -67 -4 -43 9 -76 27 -65 5 3 9 15 9 27 1
22 1 22 12 2 6 -11 15 -23 20 -26 14 -9 62 -2 66 10 5 16 23 13 36 -4 19 -25
38 -3 27 31 -6 16 -15 48 -21 72 -19 74 -51 48 -70 -58 -7 -42 -8 -40 -9 28
-1 54 -4 73 -13 70 -7 -3 -14 -19 -16 -37 l-3 -33 -17 33 c-21 41 -42 49 -43
17z"/>
<path d="M1480 675 c0 -68 2 -75 20 -75 12 0 20 7 20 16 0 12 5 11 19 -7 18
-22 20 -22 26 -6 7 16 8 16 19 1 11 -15 14 -15 30 1 13 13 20 15 29 6 16 -16
35 -13 40 7 4 16 5 16 6 0 1 -14 10 -18 35 -18 19 0 37 4 40 9 6 9 -13 29 -29
30 -5 0 -11 26 -13 57 -2 45 -6 55 -18 50 -9 -3 -18 -6 -20 -6 -2 0 -4 -21 -5
-47 l-1 -48 -9 42 c-11 45 -34 72 -49 57 -5 -5 -16 -34 -24 -64 l-15 -55 0 50
c-1 28 -5 56 -10 64 -12 18 -31 5 -31 -22 -1 -20 -2 -20 -16 6 -8 15 -21 27
-29 27 -12 0 -15 -16 -15 -75z"/>
<path d="M1823 743 c-9 -3 -13 -28 -13 -74 l0 -69 38 0 c30 0 41 5 50 23 l11
22 0 -22 c1 -20 6 -23 46 -23 33 0 45 4 45 15 0 9 -9 15 -25 15 -16 0 -25 6
-25 15 0 8 9 15 20 15 11 0 20 7 20 15 0 8 -9 15 -20 15 -11 0 -20 5 -20 10 0
6 12 10 26 10 19 0 25 4 22 18 -2 13 -13 17 -43 17 -36 0 -40 -3 -46 -30 -4
-16 -7 -22 -8 -13 -2 30 -47 54 -78 41z"/>
<path d="M202 548 c-5 -7 -13 -33 -17 -58 -7 -40 -9 -42 -16 -22 -5 13 -18 26
-29 29 -30 8 -24 21 6 15 24 -4 25 -3 15 17 -17 31 -58 28 -73 -5 -11 -25 -10
-29 22 -55 35 -30 35 -39 0 -17 -26 16 -36 4 -22 -27 13 -29 59 -35 68 -10 6
14 8 13 20 -2 13 -17 15 -17 29 1 14 19 15 19 35 1 29 -27 35 -13 20 52 -19
88 -34 109 -58 81z"/>
<path d="M286 548 c-13 -40 -16 -72 -10 -108 6 -37 9 -40 40 -40 20 0 37 6 42
16 8 15 10 15 15 0 7 -19 48 -21 65 -4 7 7 13 21 13 33 1 13 4 9 8 -10 4 -22
12 -31 31 -33 41 -5 63 19 64 70 1 55 -16 78 -60 78 -28 0 -33 -4 -37 -27 l-4
-28 -2 28 c0 17 -7 27 -16 27 -11 0 -15 -12 -15 -49 0 -66 -16 -74 -22 -11 -6
57 -10 65 -34 56 -14 -5 -16 -15 -11 -56 6 -48 5 -50 -18 -50 -24 0 -25 3 -25
54 0 51 -15 84 -24 54z"/>
<path d="M633 548 c-10 -13 -33 -108 -33 -134 0 -20 27 -18 40 4 10 16 10 16
20 0 15 -25 40 -23 40 3 0 21 0 21 19 -2 16 -20 23 -22 47 -14 24 9 30 17 32
48 3 34 1 37 -22 37 -16 0 -26 -6 -26 -15 0 -8 5 -15 10 -15 6 0 10 -4 10 -10
0 -16 -30 -12 -36 5 -4 8 -3 26 0 40 5 21 10 24 36 18 34 -6 39 6 11 31 -16
15 -23 16 -43 5 -31 -16 -38 -28 -39 -69 -1 -35 -1 -35 -14 11 -19 70 -31 84
-52 57z"/>
<path d="M987 548 c-10 -5 -22 -19 -27 -31 -8 -21 -9 -20 -9 6 -1 20 -6 27
-21 27 -19 0 -21 -5 -18 -72 2 -56 6 -73 18 -73 8 0 17 11 20 25 6 25 7 25 14
3 13 -40 69 -41 82 -1 8 26 -3 35 -26 20 -11 -7 -22 -12 -25 -12 -9 0 -5 69 5
75 6 3 10 1 10 -4 0 -6 8 -11 18 -11 13 0 21 -13 30 -44 7 -29 18 -47 31 -51
28 -9 61 11 62 38 1 16 3 15 8 -8 6 -28 10 -30 56 -33 38 -3 52 1 63 15 13 17
14 17 26 1 18 -24 36 -23 36 3 0 36 -22 114 -37 129 -13 13 -16 13 -29 -4 -7
-11 -17 -41 -20 -66 -6 -43 -8 -46 -30 -42 -22 4 -24 9 -24 57 0 36 -4 55 -14
58 -19 7 -26 -1 -27 -32 0 -25 -1 -25 -9 -4 -5 12 -18 27 -30 33 -17 9 -24 7
-44 -14 -18 -17 -26 -20 -30 -11 -8 23 -39 34 -59 23z"/>
<path d="M1963 548 c-6 -7 -16 -38 -23 -68 -10 -41 -15 -50 -20 -35 -4 10 -2
31 4 46 13 37 -6 59 -50 59 l-34 0 0 -75 c0 -60 3 -75 15 -75 10 0 15 10 15
28 l0 27 13 -25 c15 -31 52 -37 78 -14 16 14 21 15 34 4 22 -18 80 -23 105
-10 24 13 18 30 -11 30 -16 0 -19 7 -19 55 0 48 -2 55 -20 55 -18 0 -20 -7
-21 -57 l-1 -58 -12 50 c-18 74 -31 90 -53 63z"/>
</g>
</svg>
