<?xml version="1.0" standalone="no"?>
<!DOCTYPE svg PUBLIC "-//W3C//DTD SVG 20010904//EN"
 "http://www.w3.org/TR/2001/REC-SVG-20010904/DTD/svg10.dtd">
<svg version="1.0" xmlns="http://www.w3.org/2000/svg"
 width="1228.000000pt" height="800.000000pt" viewBox="0 0 1228.000000 800.000000"
 preserveAspectRatio="xMidYMid meet">
<metadata>
Created by potrace 1.16, written by Peter Selinger 2001-2019
</metadata>
<g transform="translate(0.000000,800.000000) scale(0.100000,-0.100000)"
fill="#000000" stroke="none">
<path d="M9657 7872 c-21 -37 -105 -200 -186 -362 -118 -234 -152 -295 -167
-294 -23 1 -626 89 -749 109 -49 8 -91 12 -94 9 -7 -6 35 -47 336 -332 221
-208 273 -262 273 -283 0 -26 -261 -563 -326 -670 -38 -63 -40 -69 -21 -69 14
0 52 19 446 224 175 91 292 146 306 144 14 -2 139 -111 305 -265 155 -145 287
-263 294 -263 14 0 11 29 -24 220 -12 63 -32 174 -45 245 -13 72 -31 166 -39
211 -8 44 -13 90 -10 100 4 14 59 47 177 107 544 275 599 306 547 314 -61 8
-190 27 -265 38 -144 23 -434 63 -503 71 -53 6 -63 10 -66 28 -21 103 -48 252
-66 356 -12 69 -31 166 -41 215 -11 50 -23 116 -26 148 -3 32 -9 59 -12 61 -4
3 -23 -26 -44 -62z"/>
<path d="M9490 6253 c0 -22 5 -65 10 -94 22 -117 31 -349 20 -563 -17 -352
-74 -642 -182 -931 -124 -331 -281 -588 -520 -854 -67 -74 -78 -99 -137 -311
-97 -352 -142 -516 -181 -657 -22 -78 -40 -147 -40 -153 0 -7 118 -10 369 -10
307 0 371 2 380 14 7 8 29 81 50 163 22 81 62 234 91 338 28 105 85 316 127
470 42 154 91 336 110 405 18 69 49 181 67 250 19 69 59 215 89 325 30 110 78
288 107 395 28 107 62 231 75 275 13 44 37 134 54 200 17 66 37 140 46 164 25
71 20 91 -33 142 -41 39 -358 338 -464 438 l-38 35 0 -41z"/>
<path d="M9426 6112 c-3 -6 -15 -57 -27 -114 -82 -411 -193 -689 -399 -999
-139 -208 -364 -443 -585 -610 -295 -224 -730 -426 -1171 -543 -205 -54 -481
-109 -614 -121 -36 -3 -127 -13 -204 -22 -158 -18 -149 -21 -167 66 -32 155
-136 277 -304 360 -93 46 -279 106 -478 156 -207 51 -318 88 -341 114 -22 25
-36 106 -24 147 13 49 102 118 185 144 83 26 153 25 239 -1 115 -35 174 -121
174 -252 l0 -49 143 7 c78 3 185 10 237 15 52 5 146 12 207 16 75 4 116 11
124 20 19 24 23 163 5 253 -46 248 -194 376 -496 433 -159 30 -497 30 -674 0
-348 -60 -599 -208 -765 -451 -92 -134 -137 -286 -129 -438 5 -99 30 -167 94
-254 90 -123 311 -229 660 -318 203 -51 284 -87 337 -151 24 -28 27 -40 27
-102 0 -43 -6 -83 -16 -103 -25 -53 -104 -125 -174 -159 -61 -29 -74 -31 -192
-34 -118 -3 -132 -2 -180 21 -69 31 -117 72 -136 117 -10 21 -18 78 -22 145
l-5 110 -50 4 c-27 2 -104 -2 -170 -8 -66 -7 -203 -16 -305 -21 -157 -8 -187
-12 -197 -27 -17 -23 -17 -278 1 -359 28 -133 119 -275 215 -336 70 -44 186
-84 311 -109 100 -19 148 -22 370 -22 236 0 264 2 375 26 194 42 309 86 463
180 45 27 85 47 89 44 3 -4 -13 -34 -36 -68 -22 -34 -40 -64 -38 -65 7 -7 757
85 912 112 289 50 387 72 625 142 318 92 607 218 877 380 198 118 348 236 508
397 416 419 666 949 739 1570 32 279 37 506 11 568 -7 18 -13 68 -14 112 -2
81 -4 94 -15 77z m-788 -1778 c22 -35 22 -54 0 -54 -7 0 -21 -9 -33 -20 l-22
-20 -46 22 c-51 25 -55 34 -32 78 14 27 20 30 63 30 43 -1 49 -4 70 -36z
m-268 -179 c0 -15 9 -31 25 -41 35 -23 31 -38 -12 -57 -21 -9 -46 -22 -55 -29
-14 -10 -21 -8 -42 11 -21 20 -28 22 -41 11 -12 -10 -19 -10 -27 -2 -9 9 -8
21 5 47 9 20 17 44 17 55 0 15 9 20 48 23 26 2 55 4 65 5 12 1 17 -5 17 -23z
m-313 -162 c48 -5 51 -7 56 -37 3 -17 8 -41 12 -53 6 -20 4 -23 -18 -23 -14 0
-40 -12 -57 -26 -17 -15 -32 -25 -33 -23 -2 2 -11 16 -20 32 -11 17 -26 27
-42 27 -30 0 -33 25 -5 40 14 8 20 21 20 46 0 31 3 35 18 29 9 -4 40 -10 69
-12z m-320 -133 c14 -11 41 -20 59 -20 38 0 46 -9 49 -59 1 -20 6 -44 10 -54
7 -16 3 -17 -33 -11 -34 5 -42 3 -54 -15 -18 -30 -42 -26 -55 9 -7 20 -22 34
-42 41 -39 14 -40 34 -1 48 26 8 30 15 30 45 0 42 3 43 37 16z m-326 -136 c20
-21 30 -25 60 -20 45 7 49 3 38 -39 -8 -27 -6 -40 7 -60 21 -32 13 -40 -32
-37 -22 2 -48 -5 -68 -18 -43 -26 -46 -26 -46 10 0 24 -8 35 -41 56 -44 28
-44 33 4 50 27 9 32 16 35 47 4 44 11 46 43 11z m-365 -79 c14 -34 15 -35 74
-35 68 0 76 -12 35 -50 -30 -29 -31 -37 -4 -66 41 -43 7 -67 -56 -40 -28 12
-32 11 -63 -16 -19 -16 -39 -27 -45 -25 -7 2 -12 25 -12 52 0 47 -1 49 -31 55
-42 9 -54 18 -54 40 0 15 9 19 48 22 47 3 47 3 59 48 6 25 12 46 12 48 1 1 6
2 12 2 5 0 17 -16 25 -35z m-466 -75 c4 -8 13 -27 19 -42 10 -26 14 -28 71
-28 35 0 60 -4 60 -11 0 -5 -17 -25 -37 -44 l-37 -34 17 -36 c9 -20 17 -45 17
-56 0 -17 -4 -19 -22 -13 -13 3 -35 15 -50 25 -34 25 -44 24 -80 -6 -43 -36
-53 -28 -51 37 l3 55 -40 16 c-32 12 -40 20 -40 41 0 25 3 26 54 26 57 0 66 8
66 54 0 13 3 26 7 30 11 10 35 3 43 -14z"/>
<path d="M1054 5112 c-6 -4 -59 -189 -118 -412 -59 -223 -129 -484 -156 -580
-27 -96 -70 -256 -95 -355 -26 -99 -64 -243 -85 -320 -129 -469 -200 -736
-200 -749 0 -13 49 -15 363 -18 199 -2 369 0 377 4 8 3 29 62 51 145 20 76 82
309 138 518 57 209 115 427 131 485 40 150 154 577 185 695 15 55 40 147 55
205 15 58 42 157 60 220 46 168 45 156 18 163 -33 9 -711 8 -724 -1z"/>
<path d="M1988 5108 c-9 -7 -20 -33 -26 -58 -5 -25 -33 -133 -62 -240 -29
-107 -56 -208 -60 -225 -26 -101 -144 -539 -157 -585 -9 -30 -42 -154 -73
-275 -94 -357 -188 -709 -236 -879 -25 -87 -44 -160 -42 -161 2 -2 158 -5 347
-6 311 -2 345 -1 356 14 7 9 24 63 39 119 87 328 153 573 193 718 24 91 60
225 78 299 35 138 46 164 66 144 6 -6 50 -109 99 -229 48 -121 151 -370 227
-554 77 -184 152 -369 168 -410 16 -41 33 -80 39 -87 8 -9 101 -13 364 -13
195 -1 356 0 358 2 2 3 15 47 28 99 13 52 41 155 61 229 20 74 43 158 50 185
7 28 23 86 35 130 12 44 35 132 52 195 16 63 47 178 68 255 20 77 54 203 75
280 45 171 117 439 150 560 13 50 49 179 78 288 l54 199 -25 9 c-13 5 -168 8
-354 7 l-331 -3 -42 -155 c-23 -85 -59 -218 -79 -295 -21 -77 -78 -289 -127
-470 -49 -182 -89 -341 -89 -353 0 -28 -27 -40 -45 -21 -7 8 -50 106 -95 219
-72 181 -153 376 -181 435 -5 11 -15 38 -23 60 -8 22 -35 90 -61 150 -25 61
-57 137 -70 170 -88 221 -102 250 -126 256 -13 4 -168 7 -345 8 -242 1 -324
-2 -336 -11z"/>
<path d="M7308 5113 c-9 -2 -27 -21 -39 -41 -13 -20 -64 -100 -114 -177 -50
-77 -171 -264 -267 -415 -97 -151 -190 -296 -207 -322 l-31 -48 27 0 c90 1
548 82 658 117 66 21 68 23 117 115 70 131 102 142 88 28 -5 -35 -6 -68 -4
-71 20 -33 606 219 635 273 11 21 7 80 -28 385 l-18 151 -29 6 c-33 7 -762 6
-788 -1z"/>
<path d="M8180 3309 c-129 -79 -292 -160 -455 -226 -60 -25 -116 -50 -124 -56
-11 -10 -12 -42 -7 -177 4 -91 9 -166 11 -168 4 -4 768 -2 773 2 5 6 -17 263
-34 386 -7 58 -16 137 -19 175 -8 96 -15 135 -23 134 -4 0 -59 -32 -122 -70z"/>
<path d="M6310 2754 c-96 -12 -251 -30 -345 -39 -93 -9 -179 -20 -190 -25 -12
-5 126 -9 337 -9 242 -1 365 3 381 10 25 11 47 47 47 74 0 19 -9 18 -230 -11z"/>
<path d="M993 2313 c-10 -3 -13 -57 -13 -219 l0 -214 70 0 70 0 0 214 c0 186
-2 215 -16 220 -18 7 -93 7 -111 -1z"/>
<path d="M1233 2313 c-10 -3 -13 -57 -13 -219 l0 -214 60 0 60 0 0 95 c0 76 3
95 14 95 8 0 43 -41 77 -91 35 -50 69 -94 78 -97 32 -12 112 -7 121 8 5 8 10
106 10 217 0 230 3 222 -87 208 l-46 -7 6 -94 c3 -56 1 -96 -4 -100 -13 -8
-65 48 -118 129 -24 36 -53 68 -65 71 -25 7 -76 6 -93 -1z"/>
<path d="M1805 2305 c-60 -21 -85 -56 -85 -116 0 -66 25 -91 121 -120 41 -12
84 -28 97 -35 42 -27 20 -84 -33 -84 -9 0 -31 14 -48 32 -30 30 -76 47 -124
48 -20 0 -23 -5 -23 -41 0 -81 82 -125 216 -117 85 6 128 28 155 80 22 43 24
72 8 117 -9 24 -25 39 -70 61 -32 17 -68 30 -79 30 -11 0 -37 7 -56 15 -28 11
-35 19 -32 37 4 33 42 35 87 4 47 -33 141 -38 141 -8 0 10 -15 36 -32 56 -25
28 -44 40 -78 46 -65 13 -119 11 -165 -5z"/>
<path d="M2127 2313 c-4 -3 -7 -28 -7 -54 0 -55 3 -57 95 -61 l50 -3 5 -155 5
-155 68 -3 67 -3 0 161 0 160 53 0 c28 0 57 4 63 8 6 4 14 28 18 53 7 46 7 46
-25 53 -42 8 -384 8 -392 -1z"/>
<path d="M2610 2301 c-12 -24 -14 -407 -1 -415 18 -11 117 -16 131 -7 12 8 16
40 18 153 2 79 1 176 -3 216 l-7 72 -64 0 c-52 0 -65 -3 -74 -19z"/>
<path d="M2806 2304 c-10 -26 -7 -69 7 -87 8 -11 30 -17 72 -19 l60 -3 5 -155
5 -154 44 -9 c28 -6 52 -5 67 2 23 10 24 14 26 163 l3 153 40 3 c82 5 85 7 85
61 l0 48 -46 7 c-26 3 -118 6 -204 6 -135 0 -159 -2 -164 -16z"/>
<path d="M3287 2313 c-11 -10 -8 -284 3 -325 15 -53 77 -105 135 -114 72 -10
173 1 203 23 63 47 67 60 70 243 l3 169 -24 6 c-13 4 -43 5 -68 3 l-44 -3 -5
-163 c-6 -181 -6 -182 -73 -182 -56 0 -67 33 -67 203 l0 135 -31 6 c-41 8 -94
8 -102 -1z"/>
<path d="M3767 2313 c-4 -3 -7 -28 -7 -54 0 -54 3 -56 90 -61 l45 -3 3 -157 3
-158 69 0 69 0 3 158 3 157 50 5 c67 7 75 14 75 64 l0 43 -46 7 c-62 8 -349 8
-357 -1z"/>
<path d="M4346 2306 c-96 -36 -141 -103 -141 -211 1 -117 56 -192 160 -215 57
-13 156 -5 196 16 38 19 76 68 89 112 21 79 5 199 -33 240 -57 61 -188 89
-271 58z m125 -96 c30 -17 49 -64 49 -124 0 -71 -33 -116 -86 -116 -80 0 -115
114 -65 208 19 36 66 51 102 32z"/>
<path d="M4947 2313 c-4 -3 -7 -102 -7 -218 l0 -212 45 -6 c73 -10 75 -7 75
98 0 135 9 134 103 -10 47 -71 56 -80 92 -88 22 -4 55 -5 73 -2 l32 6 -2 217
-3 217 -29 3 c-16 2 -44 1 -63 -3 l-33 -6 0 -94 c0 -131 -18 -128 -114 21 -28
44 -54 74 -68 78 -31 8 -93 8 -101 -1z"/>
<path d="M5568 2313 c-11 -3 -32 -42 -57 -106 -46 -118 -111 -305 -111 -318 0
-5 27 -9 60 -9 57 0 61 1 82 35 40 61 140 60 167 -2 15 -35 33 -41 104 -35 53
5 56 10 28 74 -10 24 -31 79 -46 123 -15 44 -38 104 -51 133 -13 29 -24 59
-24 67 0 29 -30 45 -83 44 -29 -1 -60 -3 -69 -6z"/>
<path d="M6033 2311 c-151 -39 -200 -260 -85 -380 83 -87 259 -82 337 11 49
58 24 98 -60 98 -27 0 -37 -6 -51 -30 -26 -42 -67 -57 -99 -36 -32 21 -45 54
-45 114 0 60 27 114 63 126 22 8 32 6 55 -12 45 -37 68 -45 106 -38 22 4 37
14 41 27 9 28 -24 79 -66 101 -41 21 -148 31 -196 19z"/>
<path d="M6402 2310 c-22 -10 -22 -10 -20 -217 l3 -208 50 -6 c89 -10 83 -24
87 214 2 117 2 213 2 215 -4 8 -103 10 -122 2z"/>
<path d="M6743 2306 c-60 -19 -100 -52 -124 -99 -29 -56 -24 -195 8 -248 31
-49 92 -80 168 -87 150 -12 236 47 251 170 15 130 -14 206 -96 248 -50 26
-153 34 -207 16z m110 -97 c36 -16 57 -60 57 -119 0 -67 -21 -107 -63 -118
-45 -12 -65 -5 -93 37 -17 26 -24 49 -24 84 0 44 4 54 39 88 42 42 48 44 84
28z"/>
<path d="M7124 2307 c-2 -7 -3 -105 -2 -217 l3 -205 40 -5 c84 -11 85 -10 85
96 0 112 8 117 62 41 21 -28 51 -71 67 -93 31 -44 52 -52 119 -46 l42 4 0 213
c0 233 2 225 -60 225 -58 0 -60 -4 -60 -106 0 -130 -15 -127 -114 21 -26 39
-55 73 -64 77 -30 12 -112 9 -118 -5z"/>
<path d="M7770 2307 c-25 -13 -38 -41 -125 -277 -23 -63 -46 -123 -50 -132 -6
-16 0 -18 59 -18 64 0 68 1 84 30 35 62 138 64 174 4 19 -33 22 -34 85 -34 58
0 65 2 60 18 -3 9 -29 82 -57 162 -29 80 -61 167 -71 195 -9 27 -26 52 -36 56
-29 12 -96 10 -123 -4z"/>
<path d="M8116 2311 c-17 -7 -18 -21 -17 -217 l1 -209 172 0 173 0 0 45 0 45
-100 5 -100 5 -3 160 c-2 112 -6 161 -15 167 -15 10 -86 9 -111 -1z"/>
<path d="M8718 2313 c-2 -5 -2 -104 0 -220 l3 -213 132 0 c159 0 204 16 239
84 33 63 37 181 9 239 -41 84 -125 117 -297 117 -46 0 -84 -3 -86 -7z m223
-121 c27 -24 33 -38 37 -83 8 -97 -29 -147 -99 -137 -23 3 -24 7 -27 103 -2
55 0 110 3 123 8 31 47 29 86 -6z"/>
<path d="M9195 2308 c-3 -7 -4 -106 -3 -218 l3 -205 181 -3 c199 -3 199 -3
184 58 -6 24 -9 25 -115 30 l-110 5 0 40 0 40 100 5 100 5 0 35 0 35 -99 5
c-88 4 -100 7 -106 25 -4 11 -3 28 1 37 8 14 27 18 117 20 l107 3 9 37 c5 21
6 41 2 45 -4 5 -88 9 -187 11 -144 3 -180 1 -184 -10z"/>
<path d="M4392 1718 c-9 -9 -12 -73 -12 -225 l0 -213 64 0 c36 0 67 3 70 8 2
4 6 99 7 212 l3 204 -30 13 c-37 16 -87 16 -102 1z"/>
<path d="M521 1711 c-73 -19 -117 -75 -105 -136 10 -53 47 -82 141 -111 67
-20 86 -31 96 -51 26 -59 -55 -81 -101 -27 -43 50 -152 53 -152 4 0 -31 67
-98 108 -110 85 -23 194 -8 240 34 54 48 70 133 32 174 -30 32 -114 72 -152
72 -44 0 -80 26 -76 53 5 33 48 34 86 3 24 -21 40 -26 86 -26 50 0 56 2 56 21
0 34 -18 58 -63 80 -46 24 -142 33 -196 20z"/>
<path d="M989 1708 c-14 -12 -159 -391 -159 -417 0 -7 22 -11 60 -11 58 0 61
1 81 34 16 28 28 35 63 40 53 8 94 -6 105 -37 5 -14 17 -27 26 -31 28 -10 125
-7 125 5 0 6 -11 38 -24 72 -13 34 -43 114 -66 177 -22 63 -46 127 -51 142 -6
14 -20 29 -32 32 -38 10 -113 6 -128 -6z"/>
<path d="M1353 1713 c-10 -3 -13 -57 -13 -219 l0 -214 173 2 172 3 3 42 c4 50
0 52 -123 55 l-80 3 -3 160 c-2 112 -6 161 -15 167 -13 8 -94 9 -114 1z"/>
<path d="M1727 1714 c-12 -13 -7 -190 8 -268 28 -148 56 -171 210 -171 119 0
153 14 187 78 21 39 23 55 23 202 l0 160 -63 -2 c-35 -1 -66 -4 -69 -7 -4 -3
-5 -61 -4 -128 2 -124 -8 -185 -31 -200 -18 -11 -70 -10 -88 2 -12 7 -16 42
-20 172 l-5 163 -70 3 c-39 1 -74 0 -78 -4z"/>
<path d="M2244 1707 c-2 -7 -3 -105 -2 -217 l3 -205 140 -3 c166 -3 196 7 234
77 32 59 41 173 17 235 -34 90 -89 115 -262 122 -95 3 -126 1 -130 -9z m211
-101 c43 -18 55 -42 55 -111 0 -59 -19 -109 -45 -119 -31 -11 -73 -6 -79 10
-8 21 -8 219 1 227 10 11 30 8 68 -7z"/>
<path d="M3048 1708 c-9 -7 -44 -88 -76 -179 -33 -91 -67 -180 -76 -198 -9
-17 -14 -36 -11 -41 3 -6 35 -10 71 -10 64 0 65 0 79 34 17 40 24 43 95 38 50
-3 56 -6 70 -35 14 -31 18 -32 83 -35 37 -2 67 1 67 6 0 15 -120 335 -143 382
l-22 45 -60 3 c-38 2 -66 -2 -77 -10z"/>
<path d="M3503 1700 c-86 -34 -123 -96 -123 -205 0 -111 52 -191 140 -215 103
-28 282 11 296 65 3 11 4 54 2 95 l-3 75 -50 6 c-27 3 -75 3 -105 0 l-55 -6 0
-35 c0 -30 4 -35 25 -38 55 -6 70 -13 70 -31 0 -27 -24 -43 -75 -48 -39 -5
-47 -2 -75 25 -28 29 -30 35 -30 105 0 73 1 76 35 106 43 38 54 38 101 6 32
-22 44 -24 88 -19 28 4 55 10 60 15 18 16 -5 59 -45 86 -56 37 -179 43 -256
13z"/>
<path d="M3922 1712 c-9 -7 -12 -57 -10 -218 l3 -209 60 0 60 0 5 79 c3 46 10
81 16 83 15 5 59 -48 89 -107 13 -26 31 -50 40 -54 24 -9 145 -7 145 2 0 4
-20 43 -45 86 -25 44 -45 84 -45 90 1 6 14 27 30 46 24 28 30 43 30 83 0 69
-33 100 -121 116 -75 13 -238 15 -257 3z"/>
<path d="M4736 1706 c-94 -35 -136 -100 -137 -213 -1 -95 29 -157 92 -193 37
-21 57 -25 129 -25 100 0 137 15 176 75 38 56 25 75 -61 94 -27 6 -32 3 -50
-31 -22 -41 -61 -58 -100 -43 -17 6 -29 25 -41 64 -17 53 -17 59 0 111 26 82
70 97 131 44 30 -27 41 -31 72 -26 20 4 44 13 52 22 14 14 14 19 -4 52 -11 21
-36 45 -58 56 -50 25 -150 32 -201 13z"/>
<path d="M5219 1706 c-51 -18 -79 -40 -111 -87 -25 -37 -28 -51 -28 -122 0
-66 4 -87 26 -127 39 -73 86 -95 199 -95 112 0 154 18 192 82 18 32 27 64 31
111 9 130 -35 206 -138 236 -64 19 -122 20 -171 2z m142 -115 c26 -26 29 -36
29 -90 0 -95 -28 -131 -100 -131 -81 0 -106 172 -33 229 36 29 69 26 104 -8z"/>
<path d="M5598 1704 c-2 -9 -1 -107 2 -218 l5 -201 239 -3 c212 -2 241 0 258
14 10 10 18 23 18 30 0 22 32 32 88 27 46 -5 55 -9 63 -32 14 -36 25 -41 97
-41 44 0 62 4 62 13 0 7 -18 60 -41 118 -22 57 -56 147 -75 199 -19 52 -40 98
-47 102 -20 13 -134 9 -144 -4 -12 -16 -97 -246 -113 -308 -7 -25 -14 -51 -16
-59 -4 -11 -12 -7 -32 12 -25 24 -35 26 -122 29 l-95 3 -3 161 -2 162 -31 6
c-60 12 -107 7 -111 -10z"/>
<path d="M6680 1513 c0 -115 4 -214 9 -221 5 -9 28 -12 77 -10 l69 3 3 209 c2
161 -1 211 -10 218 -7 4 -43 8 -80 8 l-68 0 0 -207z"/>
<path d="M6927 1713 c-10 -9 -8 -406 2 -421 5 -9 25 -12 62 -10 l54 3 1 80 c1
44 2 86 3 93 3 31 35 2 94 -83 l63 -90 67 -3 67 -3 -2 218 -3 218 -34 3 c-19
2 -44 1 -57 -2 -23 -6 -24 -10 -24 -101 0 -131 -18 -128 -114 21 -28 44 -54
74 -68 78 -31 8 -103 8 -111 -1z"/>
<path d="M7407 1713 c-4 -3 -7 -28 -7 -54 0 -54 3 -56 90 -61 l45 -3 5 -155 5
-155 65 0 65 0 3 158 3 157 42 0 c78 0 87 6 87 60 l0 47 -52 7 c-70 8 -343 8
-351 -1z"/>
<path d="M7875 1708 c-3 -7 -4 -106 -3 -218 l3 -205 183 -3 183 -2 -3 42 -3
43 -95 2 c-52 1 -103 2 -113 2 -15 1 -18 8 -15 44 l3 42 103 3 103 3 -3 37 -3
37 -100 5 -100 5 0 35 0 35 110 5 110 5 9 37 c5 21 6 41 2 45 -4 5 -88 10
-187 11 -145 3 -180 1 -184 -10z"/>
<path d="M8436 1706 c-90 -34 -126 -84 -134 -184 -6 -89 11 -147 57 -193 42
-43 91 -59 178 -59 65 0 160 29 188 56 11 11 15 39 15 104 l0 88 -32 3 c-18 2
-67 2 -108 -1 -69 -5 -75 -7 -78 -28 -5 -31 15 -52 47 -52 56 0 69 -43 21 -67
-44 -22 -88 -16 -121 16 -27 27 -29 35 -29 99 0 61 4 75 25 100 37 44 69 49
116 16 33 -23 44 -25 88 -19 28 4 52 13 55 21 9 23 -15 63 -50 85 -44 27 -182
36 -238 15z"/>
<path d="M8835 1709 c-3 -8 -4 -107 -3 -219 l3 -205 60 0 60 0 3 83 c2 59 6
82 16 82 16 0 49 -36 69 -76 9 -18 28 -46 43 -63 l26 -31 139 0 140 0 20 34
c14 24 29 36 53 40 45 9 95 -3 106 -25 22 -40 41 -49 101 -49 32 0 59 1 59 3
0 2 -15 48 -34 103 -63 187 -109 299 -129 317 -23 20 -115 24 -139 5 -9 -7
-28 -44 -41 -83 -83 -238 -112 -305 -133 -305 -14 0 -27 13 -42 43 -12 23 -31
56 -42 73 l-21 32 36 37 c31 34 35 44 35 91 0 91 -43 112 -247 121 -109 5
-134 3 -138 -8z"/>
<path d="M9764 1709 c-3 -6 -4 -104 -2 -220 l3 -209 174 2 c151 3 175 5 185
20 7 11 7 26 0 45 -9 27 -11 28 -104 33 l-95 5 -3 163 c-1 89 -6 163 -10 163
-39 7 -143 5 -148 -2z"/>
</g>
</svg>
